<svg width="52" height="12" viewBox="0 0 52 12" fill="none" xmlns="http://www.w3.org/2000/svg">
<path d="M0.269882 10.7855V0H3.6321V1.35511H2.02556V9.42614H3.6321V10.7855H0.269882Z" fill="#FF3636"/>
<path d="M4.28089 5.42898V4.57244C4.77237 4.57244 5.11328 4.47443 5.30362 4.27841C5.49396 4.08239 5.58913 3.76562 5.58913 3.32812V2.38636C5.58913 1.8608 5.66157 1.44034 5.80646 1.125C5.95419 0.806818 6.15873 0.566761 6.42009 0.40483C6.6843 0.242898 6.9968 0.134943 7.35759 0.0809655C7.71839 0.0269885 8.11328 0 8.54225 0V1.35511C8.20703 1.35511 7.95135 1.39915 7.77521 1.48722C7.60191 1.57244 7.48402 1.70597 7.42152 1.88778C7.35902 2.06676 7.32777 2.29403 7.32777 2.5696V3.81392C7.32777 4.02983 7.28799 4.2358 7.20845 4.43182C7.1289 4.625 6.98117 4.79688 6.76527 4.94744C6.54936 5.09517 6.24112 5.21307 5.84055 5.30114C5.43998 5.38636 4.9201 5.42898 4.28089 5.42898ZM8.54225 10.7855C8.11328 10.7855 7.71839 10.7585 7.35759 10.7045C6.9968 10.6506 6.6843 10.5426 6.42009 10.3807C6.15873 10.2188 5.95419 9.97869 5.80646 9.66051C5.66157 9.34517 5.58913 8.92472 5.58913 8.39915V7.45312C5.58913 7.01562 5.49396 6.69886 5.30362 6.50284C5.11328 6.30682 4.77237 6.20881 4.28089 6.20881V5.35227C4.9201 5.35227 5.43998 5.39631 5.84055 5.48438C6.24112 5.5696 6.54936 5.6875 6.76527 5.83807C6.98117 5.9858 7.1289 6.15767 7.20845 6.35369C7.28799 6.54688 7.32777 6.75284 7.32777 6.97159V8.21591C7.32777 8.48864 7.35902 8.71449 7.42152 8.89347C7.48402 9.07528 7.60191 9.20881 7.77521 9.29403C7.95135 9.3821 8.20703 9.42614 8.54225 9.42614V10.7855ZM4.28089 6.20881V4.57244H5.81072V6.20881H4.28089Z" fill="#FF3636"/>
<path d="M14.696 9C14.144 9 13.644 8.868 13.196 8.604C12.756 8.332 12.404 7.968 12.14 7.512C11.884 7.056 11.756 6.54 11.756 5.964C11.756 5.388 11.884 4.872 12.14 4.416C12.404 3.952 12.756 3.588 13.196 3.324C13.644 3.06 14.144 2.928 14.696 2.928C15.24 2.928 15.732 3.048 16.172 3.288C16.612 3.528 16.96 3.852 17.216 4.26L16.508 4.704C16.324 4.4 16.072 4.16 15.752 3.984C15.44 3.8 15.088 3.708 14.696 3.708C14.296 3.708 13.94 3.808 13.628 4.008C13.316 4.2 13.068 4.464 12.884 4.8C12.708 5.136 12.62 5.524 12.62 5.964C12.62 6.396 12.708 6.784 12.884 7.128C13.068 7.464 13.316 7.732 13.628 7.932C13.94 8.124 14.296 8.22 14.696 8.22C15.088 8.22 15.44 8.132 15.752 7.956C16.072 7.772 16.324 7.528 16.508 7.224L17.216 7.668C16.96 8.076 16.612 8.4 16.172 8.64C15.732 8.88 15.24 9 14.696 9Z" fill="white"/>
<path d="M21.4353 9C20.8993 9 20.4153 8.868 19.9833 8.604C19.5593 8.332 19.2193 7.968 18.9633 7.512C18.7153 7.056 18.5913 6.54 18.5913 5.964C18.5913 5.388 18.7153 4.872 18.9633 4.416C19.2193 3.952 19.5593 3.588 19.9833 3.324C20.4153 3.06 20.8993 2.928 21.4353 2.928C21.9713 2.928 22.4513 3.06 22.8753 3.324C23.3073 3.588 23.6473 3.952 23.8953 4.416C24.1513 4.872 24.2793 5.388 24.2793 5.964C24.2793 6.54 24.1513 7.056 23.8953 7.512C23.6473 7.968 23.3073 8.332 22.8753 8.604C22.4513 8.868 21.9713 9 21.4353 9ZM21.4353 8.22C21.8193 8.22 22.1593 8.124 22.4553 7.932C22.7513 7.732 22.9833 7.464 23.1513 7.128C23.3273 6.784 23.4153 6.396 23.4153 5.964C23.4153 5.524 23.3273 5.136 23.1513 4.8C22.9833 4.464 22.7513 4.2 22.4553 4.008C22.1593 3.808 21.8193 3.708 21.4353 3.708C21.0513 3.708 20.7113 3.808 20.4153 4.008C20.1193 4.2 19.8833 4.464 19.7073 4.8C19.5393 5.136 19.4553 5.524 19.4553 5.964C19.4553 6.396 19.5393 6.784 19.7073 7.128C19.8833 7.464 20.1193 7.732 20.4153 7.932C20.7113 8.124 21.0513 8.22 21.4353 8.22Z" fill="white"/>
<path d="M28.0306 8.964C27.5266 8.964 27.0706 8.832 26.6626 8.568C26.2546 8.296 25.9306 7.936 25.6906 7.488C25.4506 7.032 25.3306 6.524 25.3306 5.964C25.3306 5.396 25.4506 4.888 25.6906 4.44C25.9386 3.984 26.2706 3.624 26.6866 3.36C27.1026 3.088 27.5666 2.952 28.0786 2.952C28.4386 2.952 28.7746 3.024 29.0866 3.168C29.3986 3.304 29.6706 3.504 29.9026 3.768V0.215999L30.7786 0.0359995V4.458V8.88H29.9026V8.1C29.6786 8.38 29.4066 8.596 29.0866 8.748C28.7666 8.892 28.4146 8.964 28.0306 8.964ZM28.2466 8.196C28.5906 8.196 28.9066 8.128 29.1946 7.992C29.4826 7.856 29.7186 7.664 29.9026 7.416V4.512C29.7106 4.264 29.4666 4.072 29.1706 3.936C28.8826 3.792 28.5746 3.72 28.2466 3.72C27.8546 3.72 27.5026 3.816 27.1906 4.008C26.8866 4.2 26.6426 4.464 26.4586 4.8C26.2826 5.136 26.1946 5.52 26.1946 5.952C26.1946 6.376 26.2826 6.76 26.4586 7.104C26.6426 7.44 26.8866 7.708 27.1906 7.908C27.5026 8.1 27.8546 8.196 28.2466 8.196Z" fill="white"/>
<path d="M35.0219 1.632C34.8139 1.632 34.6339 1.56 34.4819 1.416C34.3379 1.264 34.2659 1.088 34.2659 0.888C34.2659 0.68 34.3379 0.504 34.4819 0.36C34.6339 0.216 34.8139 0.144 35.0219 0.144C35.2299 0.144 35.4059 0.216 35.5499 0.36C35.7019 0.504 35.7779 0.68 35.7779 0.888C35.7779 1.088 35.7019 1.264 35.5499 1.416C35.4059 1.56 35.2299 1.632 35.0219 1.632ZM36.4859 9C35.8699 9 35.3979 8.856 35.0699 8.568C34.7419 8.28 34.5779 7.848 34.5779 7.272V3.744H32.4059V3.024H35.4539V7.188C35.4539 7.556 35.5419 7.82 35.7179 7.98C35.8939 8.14 36.1539 8.22 36.4979 8.22C36.7059 8.22 36.9179 8.2 37.1339 8.16C37.3499 8.112 37.5899 8.036 37.8539 7.932V8.724C37.6219 8.804 37.3899 8.868 37.1579 8.916C36.9339 8.972 36.7099 9 36.4859 9Z" fill="white"/>
<path d="M40.9332 8.88V3.744H38.9292V3.024H40.9332V1.848C40.9332 0.616 41.6412 0 43.0572 0C43.2972 0 43.5372 0.0239999 43.7772 0.0719998C44.0252 0.12 44.2692 0.188 44.5092 0.276V1.092C44.2132 0.972 43.9532 0.892 43.7292 0.852C43.5052 0.804 43.2532 0.78 42.9732 0.78C42.5972 0.78 42.3092 0.876 42.1092 1.068C41.9092 1.252 41.8092 1.56 41.8092 1.992V3.024H44.5092V3.744H41.8092V8.88H40.9332Z" fill="white"/>
<path d="M46.7246 11.508C46.5966 11.508 46.4606 11.5 46.3166 11.484C46.1806 11.468 46.0446 11.444 45.9086 11.412V10.584C46.0606 10.616 46.1926 10.64 46.3046 10.656C46.4246 10.68 46.5326 10.692 46.6286 10.692C46.9006 10.692 47.1286 10.636 47.3126 10.524C47.4966 10.412 47.6446 10.22 47.7566 9.948L48.2006 8.916L45.8246 3.024H46.7846L48.7046 7.872L50.6966 3.024H51.6446L48.5606 10.212C48.4246 10.524 48.2726 10.776 48.1046 10.968C47.9446 11.16 47.7526 11.296 47.5286 11.376C47.3126 11.464 47.0446 11.508 46.7246 11.508Z" fill="white"/>
</svg>
